<?xml version="1.0" encoding="utf-8"?><svg xmlns="http://www.w3.org/2000/svg" xmlns:xlink="http://www.w3.org/1999/xlink" width="1896" height="882" preserveAspectRatio="xMidYMid" viewBox="0 0 1896 882" style="z-index:1;margin-right:-2px;display:block;background-repeat-y:initial;background-repeat-x:initial;background-color:rgb(255, 255, 255);animation-play-state:paused" ><g transform="" style="animation-play-state:paused" ><linearGradient id="lg-0.8442844036456176" x1="0" x2="1" y1="0" y2="0" style="animation-play-state:paused" ><stop stop-color="#ff00ff" offset="0" style="animation-play-state:paused" ></stop>

  
<stop stop-color="#00ffff" offset="1" style="animation-play-state:paused" ></stop></linearGradient>
<path fill="url(#lg-0.8442844036456176)" opacity="0.4" d="M 0 0 L 0 844.938 Q 189.6 712.581 379.2 678.75 T 758.4 649.331 T 1137.6 561.217 T 1516.8 402.604 T 1896 309.383 L 1896 0 Z" style="opacity:0.4;animation-play-state:paused" ></path>
<path fill="url(#lg-0.8442844036456176)" opacity="0.4" d="M 0 0 L 0 816.94 Q 189.6 778.435 379.2 749.756 T 758.4 680.234 T 1137.6 593.579 T 1516.8 502.416 T 1896 378.219 L 1896 0 Z" style="opacity:0.4;animation-play-state:paused" ></path>
<path fill="url(#lg-0.8442844036456176)" opacity="0.4" d="M 0 0 L 0 758.356 Q 189.6 694.985 379.2 669.414 T 758.4 620.845 T 1137.6 520.779 T 1516.8 475.016 T 1896 401.4 L 1896 0 Z" style="opacity:0.4;animation-play-state:paused" ></path>
<path fill="url(#lg-0.8442844036456176)" opacity="0.4" d="M 0 0 L 0 876.819 Q 189.6 705.671 379.2 669.565 T 758.4 623.675 T 1137.6 540.614 T 1516.8 405.926 T 1896 385.158 L 1896 0 Z" style="opacity:0.4;animation-play-state:paused" ></path>
<path fill="url(#lg-0.8442844036456176)" opacity="0.4" d="M 0 0 L 0 840.162 Q 189.6 725.121 379.2 703.974 T 758.4 651.819 T 1137.6 576.922 T 1516.8 450.376 T 1896 430.014 L 1896 0 Z" style="opacity:0.4;animation-play-state:paused" ></path></g></svg>